<?xml version="1.0" encoding="UTF-8"?>
<svg width="982px" height="174px" viewBox="0 0 982 174" version="1.1" xmlns="http://www.w3.org/2000/svg" xmlns:xlink="http://www.w3.org/1999/xlink">
    <!-- Generator: Sketch 54.1 (76490) - https://sketchapp.com -->
    <title>Group</title>
    <desc>Created with Sketch.</desc>
    <defs>
        <polygon id="path-1" points="0.06 0.857 487.893865 0.857 487.893865 133.356 0.06 133.356"></polygon>
        <polygon id="path-3" points="0.548 0.752 350.093 0.752 350.093 141.94 0.548 141.94"></polygon>
        <polygon id="path-5" points="0.746 0.856 225.36 0.856 225.36 103.356 0.746 103.356"></polygon>
    </defs>
    <g id="Guides" stroke="none" stroke-width="1" fill="none" fill-rule="evenodd">
        <g id="Group">
            <path d="M356.339,55.938 C341.773,52.854 326.808,49.605 326.808,37.877 C326.808,24.947 340.422,22.233 352.052,22.233 C363.971,22.233 375.46,24.837 387.163,30.189 L388.214,30.696 C388.513,30.841 388.868,30.729 389.031,30.441 L399.524,11.877 C399.693,11.544 399.578,11.154 399.259,11.01 L398.136,10.449 C382.306,3.32 367.505,0 351.558,0 C320.615,0 300.621,15.011 300.621,38.244 C300.621,65.009 323.041,73.344 347.241,78.349 C362.479,81.5 377.275,84.616 377.275,96.824 C377.275,110.012 362.64,112.781 350.152,112.781 C336.964,112.781 323.728,108.92 309.696,100.981 L309.253,100.721 C308.936,100.535 308.538,100.668 308.392,100.953 L297.502,120.278 C297.336,120.571 297.434,120.943 297.722,121.118 L298.171,121.391 C313.381,130.199 332.328,135.25 350.152,135.25 C384.032,135.25 403.462,121.178 403.462,96.642 C403.462,65.962 376.356,60.176 356.339,55.938" id="Fill-1" fill="#B9242A"></path>
            <g id="Group-5" transform="translate(0.000000, 1.894000)">
                <mask id="mask-2" fill="white">
                    <use xlink:href="#path-1"></use>
                </mask>
                <g id="Clip-3"></g>
                <path d="M482.265,108.927 C482.176,108.634 481.828,108.4 481.446,108.537 L480.068,109.069 C474.642,111.169 470.899,112.106 463.066,112.106 C453.98,112.106 448.11,107.2 448.11,99.606 L448.126,53.356 L480.501,53.356 C480.846,53.356 481.126,53.077 481.126,52.731 L481.126,33.981 C481.126,33.636 480.846,33.356 480.501,33.356 L448.11,33.356 L448.11,8.981 C448.11,8.636 447.83,8.356 447.485,8.356 L423.751,8.356 C423.405,8.356 423.126,8.636 423.126,8.981 L423.126,33.356 L403.751,33.356 C403.405,33.356 403.126,33.636 403.126,33.981 L403.126,52.731 C403.126,53.077 403.405,53.356 403.751,53.356 L423.126,53.356 L423.126,102.106 C423.126,121.675 436.215,133.356 458.139,133.356 C470.869,133.356 478.312,130.705 486.054,127.503 C486.558,127.295 487.125,127.046 487.523,126.868 C487.816,126.738 487.962,126.408 487.863,126.103 L482.265,108.927" id="Fill-2" fill="#B9242A" mask="url(#mask-2)"></path>
                <path d="M213.591,0.857 L30.628,0.857 C13.253,0.857 0,14.942 0,32.317 L0,130.182 C0,130.554 0.302,130.856 0.674,130.856 L24.326,130.856 C24.698,130.856 24.999,130.554 24.999,130.182 L24.999,30.857 L219.187,30.857 L219.187,130.182 C219.187,130.554 219.489,130.856 219.861,130.856 L243.548,130.856 C243.92,130.856 244.223,130.554 244.223,130.182 L244.223,32.317 C244.223,14.942 230.966,0.857 213.591,0.857" id="Fill-4" fill="#B9242A" mask="url(#mask-2)"></path>
            </g>
            <path d="M557.297,105.363 C546.258,113.156 538.479,116.336 530.449,116.336 C522.085,116.336 516.465,112.016 516.465,105.586 C516.465,102.86 516.782,94.276 528.659,92.753 C540.536,91.23 557.297,89.114 557.297,89.114 L557.297,105.363 Z M593.169,114.498 L589.412,114.498 C584.758,114.498 582.297,111.963 582.297,107.166 L582.297,68.451 C582.297,44.428 569.254,32.75 542.422,32.75 C531.72,32.75 517.164,33.779 499.455,41.8 C499.164,41.93 499.02,42.259 499.118,42.561 L504.974,60.631 C505.095,60.988 505.476,61.147 505.798,61.02 C518.866,55.846 530.527,53.009 538.673,53.009 C547.911,53.009 557.297,54.715 557.297,67.359 C557.297,68.15 557.297,72.281 557.297,72.75 C557.297,72.75 555.828,72.857 526.155,75.252 C496.483,77.647 492.115,98.423 492.115,106.845 C492.115,123.57 505.396,135.25 524.411,135.25 C538.171,135.25 549.988,130.956 560.54,122.123 L560.542,122.123 C562.761,126.774 569.041,134.576 586.168,134.576 L593.169,134.576 C593.514,134.576 593.794,134.297 593.794,133.951 L593.794,115.123 C593.794,114.778 593.514,114.498 593.169,114.498 L593.169,114.498 Z" id="Fill-6" fill="#B9242A"></path>
            <g id="Group-10" transform="translate(604.000000, 31.894000)">
                <mask id="mask-4" fill="white">
                    <use xlink:href="#path-3"></use>
                </mask>
                <g id="Clip-8"></g>
                <path d="M310.64,41.778 C294.602,38.966 286.738,37.488 286.738,29.961 C286.738,25.494 288.854,19.581 306.156,19.581 C311.366,19.581 323.044,20.091 336.653,27.417 L337.324,27.768 C337.617,27.917 337.986,27.818 338.157,27.525 L347.439,11.406 C347.611,11.098 347.512,10.707 347.17,10.532 L346.391,10.156 C335.194,5.01 324.45,0.752 306.287,0.752 C278.513,0.752 263.217,11.468 263.217,30.927 C263.217,53.071 283.793,58.343 303.08,61.546 C320.136,64.38 327.016,66.78 327.016,74.311 C327.016,81.171 320.403,84.505 306.287,84.505 C293.323,84.505 280.061,78.986 271.201,74.347 L270.638,74.075 C270.34,73.931 269.985,74.045 269.821,74.331 L260.607,90.612 C260.44,90.918 260.54,91.295 260.851,91.468 L261.401,91.77 C275.898,99.282 291.42,103.252 306.287,103.252 C335.354,103.252 350.093,92.977 350.093,72.712 C350.093,50.628 330.576,45.274 310.64,41.778" id="Fill-7" fill="#B9242A" mask="url(#mask-4)"></path>
                <path d="M49.298,82.105 C40.623,82.105 33.29,78.016 25.521,68.847 L25.521,34.52 C33.559,25.934 40.892,22.106 49.298,22.106 C65.244,22.106 75.548,33.883 75.548,52.106 C75.548,70.05 64.999,82.105 49.298,82.105 Z M55.548,0.856 C44.256,0.856 34.723,4.587 25.548,12.596 L25.548,3.981 C25.548,3.636 25.268,3.356 24.923,3.356 L1.173,3.356 C0.828,3.356 0.548,3.636 0.548,3.981 L0.548,141.435 C0.548,141.78 0.828,142.06 1.173,142.06 L24.896,142.06 C25.243,142.06 25.521,141.78 25.521,141.435 L25.521,91.935 C34.249,99.194 45.18,103.356 55.509,103.356 C82.027,103.356 100.548,82.282 100.548,52.106 C100.548,23.369 80.781,0.856 55.548,0.856 L55.548,0.856 Z" id="Fill-9" fill="#B9242A" mask="url(#mask-4)"></path>
            </g>
            <path d="M742.423,2.75 L718.673,2.75 C718.328,2.75 718.048,3.03 718.048,3.375 L718.048,132.125 C718.048,132.471 718.328,132.75 718.673,132.75 L742.423,132.75 C742.768,132.75 743.048,132.471 743.048,132.125 L743.048,3.375 C743.048,3.03 742.768,2.75 742.423,2.75" id="Fill-11" fill="#B9242A"></path>
            <g id="Group-15" transform="translate(756.000000, 31.894000)">
                <mask id="mask-6" fill="white">
                    <use xlink:href="#path-5"></use>
                </mask>
                <g id="Clip-13"></g>
                <path d="M49.427,21.087 C62.418,21.087 70.42,27.851 72.564,40.649 L26.554,40.649 C28.766,28.034 36.89,21.087 49.427,21.087 Z M89.049,74.478 C88.878,74.184 88.502,74.083 88.209,74.242 L87.4,74.681 C79.312,78.928 72.01,83.218 56.678,83.218 C40.043,83.218 28.76,73.968 26.495,58.476 L96.925,58.476 C97.27,58.476 97.55,58.196 97.55,57.851 L97.55,51.042 C97.55,20.086 79.039,0.856 49.242,0.856 C20.688,0.856 0.746,22.236 0.746,52.846 C0.746,83.057 22.314,103.356 54.418,103.356 C75.692,103.356 89.29,96.503 97.691,91.624 L98.11,91.356 C98.391,91.176 98.482,90.806 98.314,90.516 L89.049,74.478 L89.049,74.478 Z" id="Fill-12" fill="#B9242A" mask="url(#mask-6)"></path>
                <path d="M225.117,88.929 L224.085,88.929 C223.993,88.929 223.908,88.978 223.862,89.058 L219.047,97.511 L214.421,89.062 C214.376,88.98 214.29,88.929 214.195,88.929 L213.05,88.929 C212.908,88.929 212.793,89.045 212.793,89.186 L212.793,100.612 C212.793,100.753 212.908,100.868 213.05,100.868 L214.509,100.868 C214.65,100.868 214.766,100.753 214.766,100.612 L214.766,93.397 L218.576,100.3 C218.622,100.382 218.708,100.432 218.801,100.432 L219.174,100.432 C219.266,100.432 219.35,100.384 219.396,100.303 L223.382,93.387 L223.382,100.612 C223.382,100.753 223.497,100.868 223.638,100.868 L225.117,100.868 C225.259,100.868 225.374,100.753 225.374,100.612 L225.374,89.186 C225.374,89.045 225.259,88.929 225.117,88.929" id="Fill-14" fill="#B9242A" mask="url(#mask-6)"></path>
            </g>
            <path d="M966.649,120.823 L957.859,120.823 C957.718,120.823 957.602,120.939 957.602,121.08 L957.602,122.359 C957.602,122.5 957.718,122.615 957.859,122.615 L961.252,122.615 L961.252,132.506 C961.252,132.647 961.367,132.762 961.509,132.762 L962.986,132.762 C963.128,132.762 963.243,132.647 963.243,132.506 L963.243,122.615 L966.649,122.615 C966.791,122.615 966.906,122.5 966.906,122.359 L966.906,121.08 C966.906,120.939 966.791,120.823 966.649,120.823" id="Fill-16" fill="#B9242A"></path>
        </g>
    </g>
</svg>